PathFileType	4	(X/Y/Z)	 control3min.trc
DataRate	CameraRate	NumFrames	NumMarkers	Units	OrigDataRate	OrigDataStartFrame	OrigNumFrames
200	200	8	34	m	200	626	1000
Frame#	Time	C7			LSH			RSH			RASI			LASI			HIPR			HIPL			RPSI			LPSI			COX			RTHI1			RTHI2			RTHI3			RTHI4			RSHA1			RSHA2			RSHA3			RSHA4			RHEEL			RMET5			RMET1			RTOE			LTHI1			LTHI2			LTHI3			LTHI4			LSHA1			LSHA2			LSHA3			LSHA4			LHEEL			LMET5			LMET1			LTOE			
		X1	Y1	Z1	X2	Y2	Z2	X3	Y3	Z3	X4	Y4	Z4	X5	Y5	Z5	X6	Y6	Z6	X7	Y7	Z7	X8	Y8	Z8	X9	Y9	Z9	X10	Y10	Z10	X11	Y11	Z11	X12	Y12	Z12	X13	Y13	Z13	X14	Y14	Z14	X15	Y15	Z15	X16	Y16	Z16	X17	Y17	Z17	X18	Y18	Z18	X19	Y19	Z19	X20	Y20	Z20	X21	Y21	Z21	X22	Y22	Z22	X23	Y23	Z23	X24	Y24	Z24	X25	Y25	Z25	X26	Y26	Z26	X27	Y27	Z27	X28	Y28	Z28	X29	Y29	Z29	X30	Y30	Z30	X31	Y31	Z31	X32	Y32	Z32	X33	Y33	Z33	X34	Y34	Z34	
626	3.1300	-0.229456	1.725913	-0.535196	-0.204542	1.714626	-0.757581	-0.178757	1.716316	-0.347826	-0.061181	1.204061	-0.434472	-0.077282	1.197711	-0.658483	-0.115183	1.277755	-0.385856	-0.151196	1.276654	-0.705272	-0.245569	1.247313	-0.473383	-0.257926	1.243963	-0.587298	-0.258664	1.251759	-0.529149	-0.151689	0.993589	-0.343136	-0.141796	0.935149	-0.331939	-0.078742	0.939225	-0.346953	-0.080552	0.999513	-0.360051	-0.264607	0.424921	-0.322093	-0.273244	0.382505	-0.328616	-0.212744	0.376194	-0.324774	-0.208139	0.416054	-0.321541	-0.334327	0.169047	-0.372370	-0.183015	0.063909	-0.312530	-0.144058	0.075185	-0.393212	-0.114688	0.067623	-0.387420	-0.179893	0.949551	-0.743199	-0.162535	0.891309	-0.752726	-0.098701	0.904526	-0.754085	-0.108095	0.962579	-0.745758	-0.288514	0.401945	-0.741643	-0.298455	0.363226	-0.736804	-0.237265	0.351865	-0.746740	-0.235513	0.396520	-0.751447	-0.356898	0.168700	-0.688350	-0.213189	0.058831	-0.763788	-0.169186	0.066664	-0.696789	-0.140191	0.056850	-0.705825	
627	3.1350	-0.229240	1.725625	-0.535304	-0.204353	1.714062	-0.757789	-0.178684	1.715658	-0.347828	-0.061216	1.203930	-0.434587	-0.077327	1.197387	-0.658695	-0.115381	1.277490	-0.385922	-0.151337	1.276186	-0.705473	-0.245694	1.246690	-0.473624	-0.257926	1.243269	-0.587469	-0.258741	1.251064	-0.529371	-0.151292	0.993237	-0.342978	-0.141205	0.934832	-0.332033	-0.078248	0.939087	-0.347328	-0.080279	0.999362	-0.360409	-0.264830	0.424581	-0.323175	-0.273181	0.382659	-0.328894	-0.212694	0.376127	-0.325105	-0.207938	0.415976	-0.321819	-0.335093	0.168921	-0.372620	-0.183247	0.064510	-0.312654	-0.144338	0.075697	-0.393462	-0.114899	0.068158	-0.387804	-0.179356	0.949030	-0.743149	-0.161895	0.890786	-0.752546	-0.098071	0.904130	-0.753805	-0.107582	0.962182	-0.745573	-0.288126	0.401793	-0.741665	-0.298186	0.363103	-0.736813	-0.236990	0.351598	-0.746494	-0.235101	0.396231	-0.751231	-0.357075	0.167834	-0.688062	-0.212104	0.060107	-0.764000	-0.167925	0.068086	-0.697195	-0.138785	0.058447	-0.706256	
628	3.1400	-0.228996	1.725127	-0.535411	-0.204144	1.713214	-0.758038	-0.178560	1.714725	-0.347788	-0.061285	1.203585	-0.434708	-0.077403	1.196834	-0.658918	-0.115622	1.276956	-0.385970	-0.151509	1.275471	-0.705686	-0.245850	1.245772	-0.473880	-0.257944	1.242280	-0.587648	-0.258854	1.250072	-0.529594	-0.150847	0.992642	-0.342855	-0.140553	0.934283	-0.332128	-0.077691	0.938724	-0.347706	-0.079962	0.998982	-0.360773	-0.263528	0.424710	-0.320893	-0.273100	0.382610	-0.329166	-0.212641	0.375832	-0.325464	-0.207718	0.415639	-0.322109	-0.335866	0.168684	-0.372823	-0.183604	0.064751	-0.312897	-0.144757	0.075865	-0.393862	-0.115269	0.068298	-0.388369	-0.178740	0.948261	-0.743122	-0.161131	0.890020	-0.752388	-0.097333	0.903513	-0.753493	-0.106992	0.961566	-0.745378	-0.287712	0.401402	-0.741664	-0.297877	0.362741	-0.736790	-0.236669	0.351125	-0.746207	-0.234661	0.395723	-0.751002	-0.357222	0.166825	-0.687705	-0.211143	0.061028	-0.764076	-0.166758	0.069222	-0.697490	-0.137495	0.059727	-0.706574	
629	3.1450	-0.228726	1.724407	-0.535519	-0.203912	1.712089	-0.758322	-0.178385	1.713518	-0.347707	-0.061387	1.203020	-0.434836	-0.077503	1.196058	-0.659146	-0.115885	1.276187	-0.386017	-0.151693	1.274511	-0.705898	-0.246029	1.244550	-0.474152	-0.257990	1.241022	-0.587817	-0.259003	1.248783	-0.529814	-0.150359	0.991811	-0.342806	-0.139844	0.933492	-0.332236	-0.077074	0.938126	-0.348081	-0.079595	0.998369	-0.361134	-0.263646	0.423864	-0.321933	-0.272991	0.382351	-0.329422	-0.212548	0.375285	-0.325819	-0.207455	0.415034	-0.322414	-0.336625	0.168346	-0.372989	-0.184098	0.064607	-0.313252	-0.145313	0.075661	-0.394385	-0.115793	0.068005	-0.389072	-0.178046	0.947257	-0.743120	-0.160258	0.889024	-0.752237	-0.096484	0.902686	-0.753148	-0.106330	0.960733	-0.745178	-0.287265	0.400755	-0.741626	-0.297522	0.362138	-0.736730	-0.236290	0.350393	-0.745900	-0.234188	0.394988	-0.750761	-0.357333	0.165682	-0.687279	-0.210311	0.061556	-0.764010	-0.165716	0.070010	-0.697660	-0.136338	0.060630	-0.706764	
630	3.1500	-0.228433	1.723463	-0.535628	-0.203659	1.710694	-0.758640	-0.178159	1.712039	-0.347590	-0.061513	1.202240	-0.434976	-0.077633	1.195060	-0.659380	-0.116159	1.275167	-0.386068	-0.151896	1.273320	-0.706110	-0.246233	1.243088	-0.474405	-0.258063	1.239493	-0.587976	-0.259186	1.247214	-0.530030	-0.149832	0.990751	-0.342841	-0.139085	0.932471	-0.332364	-0.076402	0.937300	-0.348459	-0.079172	0.997534	-0.361490	-0.263452	0.423307	-0.322187	-0.272840	0.381845	-0.329652	-0.212390	0.374474	-0.326166	-0.207138	0.414169	-0.322729	-0.337358	0.167908	-0.373148	-0.184755	0.064067	-0.313709	-0.145998	0.075057	-0.395005	-0.116469	0.067259	-0.389869	-0.177279	0.946016	-0.743142	-0.159268	0.887804	-0.752095	-0.095543	0.901649	-0.752796	-0.105601	0.959689	-0.744973	-0.286777	0.399873	-0.741553	-0.297117	0.361292	-0.736633	-0.235865	0.349461	-0.745633	-0.233674	0.394029	-0.750504	-0.357396	0.164432	-0.686816	-0.209613	0.061667	-0.763801	-0.164808	0.070394	-0.697694	-0.135335	0.061095	-0.706800	
631	3.1550	-0.228117	1.722287	-0.535737	-0.203355	1.709028	-0.758978	-0.177881	1.710289	-0.347435	-0.061665	1.201237	-0.435127	-0.077784	1.193843	-0.659612	-0.116441	1.273907	-0.386121	-0.152120	1.271891	-0.706318	-0.246453	1.241311	-0.474670	-0.258165	1.237711	-0.588117	-0.259395	1.245378	-0.530239	-0.149255	0.989463	-0.342938	-0.138275	0.931218	-0.332521	-0.075674	0.936239	-0.348847	-0.078693	0.996472	-0.361845	-0.263163	0.422642	-0.322403	-0.272634	0.381074	-0.329854	-0.212179	0.373411	-0.326509	-0.206771	0.413057	-0.323061	-0.338061	0.167361	-0.373323	-0.185568	0.063124	-0.314256	-0.146798	0.074050	-0.395703	-0.117292	0.066048	-0.390720	-0.176451	0.944540	-0.743186	-0.158196	0.886357	-0.751964	-0.094516	0.900401	-0.752424	-0.104811	0.958433	-0.744773	-0.286244	0.398752	-0.741436	-0.296663	0.360215	-0.736491	-0.235397	0.348263	-0.745242	-0.233116	0.392838	-0.750237	-0.357413	0.163060	-0.686293	-0.209060	0.061319	-0.763447	-0.164050	0.070327	-0.697576	-0.134501	0.061077	-0.706671	
632	3.1600	-0.227780	1.720877	-0.535843	-0.203004	1.707101	-0.759330	-0.177552	1.708277	-0.347246	-0.061845	1.200003	-0.435287	-0.077958	1.192407	-0.659839	-0.116727	1.272383	-0.386179	-0.152372	1.270228	-0.706520	-0.246704	1.239309	-0.474924	-0.258296	1.235679	-0.588242	-0.259630	1.243282	-0.530438	-0.148641	0.987944	-0.343107	-0.137428	0.929740	-0.332714	-0.074898	0.934954	-0.349246	-0.078164	0.995180	-0.362204	-0.262904	0.421235	-0.322962	-0.272374	0.380021	-0.330007	-0.211918	0.372108	-0.326847	-0.206354	0.411712	-0.323400	-0.338735	0.166680	-0.373523	-0.186529	0.061771	-0.314887	-0.147698	0.072638	-0.396461	-0.118255	0.064378	-0.391604	-0.175574	0.942837	-0.743249	-0.157053	0.884685	-0.751818	-0.093433	0.898957	-0.752048	-0.103977	0.956970	-0.744592	-0.285662	0.397409	-0.741286	-0.296158	0.358914	-0.736313	-0.234890	0.346870	-0.744887	-0.232517	0.391411	-0.749963	-0.357377	0.161590	-0.685752	-0.208657	0.060491	-0.762942	-0.163450	0.069774	-0.697296	-0.133857	0.060531	-0.706367	
633	3.1650	-0.227420	1.719227	-0.535934	-0.202605	1.704910	-0.759692	-0.177169	1.706007	-0.347026	-0.062051	1.198527	-0.435451	-0.078151	1.190761	-0.660060	-0.117017	1.270620	-0.386255	-0.152651	1.268335	-0.706712	-0.246976	1.237049	-0.475176	-0.258452	1.233409	-0.588351	-0.259887	1.240936	-0.530627	-0.147993	0.986205	-0.343330	-0.136549	0.928039	-0.332949	-0.074085	0.933435	-0.349664	-0.077588	0.993664	-0.362578	-0.262218	0.420330	-0.322711	-0.272082	0.378665	-0.330141	-0.211621	0.370556	-0.327182	-0.205904	0.410138	-0.323747	-0.339383	0.165828	-0.373740	-0.187621	0.060024	-0.315587	-0.148685	0.070843	-0.397267	-0.119326	0.062264	-0.392511	-0.174665	0.940913	-0.743337	-0.155862	0.882805	-0.751677	-0.092311	0.897313	-0.751688	-0.103115	0.955301	-0.744434	-0.285027	0.395843	-0.741103	-0.295603	0.357386	-0.736098	-0.234328	0.345208	-0.744548	-0.231872	0.389753	-0.749679	-0.357289	0.160032	-0.685211	-0.208401	0.059164	-0.762275	-0.163013	0.068719	-0.696844	-0.133402	0.059439	-0.705884	
